<svg xmlns="http://www.w3.org/2000/svg" viewBox="0 0 96 56" fill="none">
  <defs>
    <linearGradient id="emberWood" x1="0" y1="0" x2="0" y2="1">
      <stop offset="0%" stop-color="#3A1808"/>
      <stop offset="100%" stop-color="#140808"/>
    </linearGradient>
    <radialGradient id="flame" cx="0" cy="0" r="1" gradientUnits="userSpaceOnUse" gradientTransform="translate(48 20) rotate(90) scale(20 26)">
      <stop offset="0%" stop-color="#FFD070" stop-opacity="0.8"/>
      <stop offset="45%" stop-color="#FF7420" stop-opacity="0.55"/>
      <stop offset="100%" stop-color="#FF3010" stop-opacity="0"/>
    </radialGradient>
  </defs>
  <ellipse cx="48" cy="42" rx="34" ry="8" fill="#140808"/>
  <path d="M18 42 34 28l14 4 18-14 12 24H18Z" fill="url(#emberWood)"/>
  <path d="M28 42 44 18l10 10 10-18 8 32H28Z" fill="url(#flame)"/>
  <path d="M24 42h48" stroke="#D4B020" stroke-opacity="0.12" stroke-width="2" stroke-linecap="round"/>
  <rect x="22" y="34" width="20" height="4" rx="2" fill="#241008" transform="rotate(-18 22 34)"/>
  <rect x="48" y="36" width="24" height="4" rx="2" fill="#241008" transform="rotate(22 48 36)"/>
  <rect x="60" y="28" width="18" height="3" rx="1.5" fill="#2A1010" transform="rotate(-40 60 28)"/>
</svg>