<svg xmlns="http://www.w3.org/2000/svg" viewBox="0 0 128 56" fill="none">
  <defs>
    <linearGradient id="shieldWood" x1="0" y1="0" x2="0" y2="1">
      <stop offset="0%" stop-color="#4A2010"/>
      <stop offset="100%" stop-color="#241008"/>
    </linearGradient>
    <linearGradient id="hide" x1="0" y1="0" x2="0" y2="1">
      <stop offset="0%" stop-color="#8A3800"/>
      <stop offset="100%" stop-color="#4A1800"/>
    </linearGradient>
  </defs>
  <rect x="6" y="40" width="116" height="10" rx="3" fill="#140A08"/>
  <g opacity="0.9">
    <rect x="16" y="6" width="3" height="42" rx="1.5" fill="#3A2810"/>
    <rect x="40" y="3" width="3" height="45" rx="1.5" fill="#3A2810"/>
    <rect x="66" y="5" width="3" height="43" rx="1.5" fill="#3A2810"/>
    <rect x="92" y="2" width="3" height="46" rx="1.5" fill="#3A2810"/>
  </g>
  <g>
    <path d="M6 22c0-9 7-16 16-16s16 7 16 16v14H6V22Z" fill="url(#shieldWood)"/>
    <path d="M8 22c0-8 6.5-14 14-14s14 6 14 14v12H8V22Z" fill="url(#hide)" fill-opacity="0.65"/>
    <rect x="20" y="18" width="4" height="16" rx="2" fill="#D4B020" fill-opacity="0.28"/>
  </g>
  <g>
    <path d="M30 20c0-8 7-15 16-15s16 7 16 15v15H30V20Z" fill="url(#shieldWood)"/>
    <path d="M32 20c0-7 6-13 14-13s14 6 14 13v13H32V20Z" fill="#2A1010" fill-opacity="0.45"/>
    <rect x="44" y="16" width="4" height="17" rx="2" fill="#D4B020" fill-opacity="0.22"/>
  </g>
  <g>
    <path d="M58 21c0-8 7-15 16-15s16 7 16 15v15H58V21Z" fill="url(#shieldWood)"/>
    <path d="M60 21c0-7 6-13 14-13s14 6 14 13v13H60V21Z" fill="url(#hide)" fill-opacity="0.55"/>
    <rect x="72" y="17" width="4" height="16" rx="2" fill="#D4B020" fill-opacity="0.25"/>
  </g>
  <g>
    <path d="M86 19c0-8 7-15 16-15s16 7 16 15v16H86V19Z" fill="url(#shieldWood)"/>
    <path d="M88 19c0-7 6-13 14-13s14 6 14 13v14H88V19Z" fill="#201408" fill-opacity="0.5"/>
    <rect x="100" y="15" width="4" height="18" rx="2" fill="#D4B020" fill-opacity="0.2"/>
  </g>
</svg>