<svg xmlns="http://www.w3.org/2000/svg" viewBox="0 0 160 56" fill="none">
  <defs>
    <linearGradient id="hullBody" x1="0" y1="0" x2="0" y2="1">
      <stop offset="0%" stop-color="#794020"/>
      <stop offset="42%" stop-color="#5A2C16"/>
      <stop offset="100%" stop-color="#261006"/>
    </linearGradient>
    <linearGradient id="gunwale" x1="0" y1="0" x2="1" y2="0">
      <stop offset="0%" stop-color="#3A180C"/>
      <stop offset="35%" stop-color="#6A3018"/>
      <stop offset="65%" stop-color="#7A4020"/>
      <stop offset="100%" stop-color="#34140A"/>
    </linearGradient>
    <linearGradient id="innerShade" x1="0" y1="0" x2="0" y2="1">
      <stop offset="0%" stop-color="#140804" stop-opacity="0.05"/>
      <stop offset="100%" stop-color="#140804" stop-opacity="0.42"/>
    </linearGradient>
    <linearGradient id="reflection" x1="0" y1="0" x2="0" y2="1">
      <stop offset="0%" stop-color="#704020" stop-opacity="0.18"/>
      <stop offset="100%" stop-color="#704020" stop-opacity="0"/>
    </linearGradient>
  </defs>
  <path d="M12 35c4-8 12-14 24-19C50 9 67 6 87 6c21 0 39 3 52 10 10 5 17 11 21 20-15 5-39 7-71 7-31 0-54-3-67-8-4-2-8-5-10-8Z" fill="url(#hullBody)" stroke="#6C3418" stroke-width="1.2"/>
  <path d="M8 29c5-7 13-13 24-18C47 4 64 1 84 1c22 0 41 3 56 10 9 4 16 10 20 18h-10c-5-5-11-8-19-11-11-5-27-8-46-8-19 0-36 3-49 8-8 3-15 7-23 15l-5-4Z" fill="url(#gunwale)"/>
  <path d="M16 31c5-4 9-10 12-19 1-3 3-5 6-5 5 0 9 2 10 5 1 6-4 17-10 23-7 1-13-1-18-4Z" fill="#4A2010"/>
  <path d="M131 31c5-3 10-9 16-18 2-3 4-5 8-5v29c-5 0-9-1-13-2-4-1-7-2-11-4Z" fill="#3A180E"/>
  <path d="M42 33c13 2 27 3 43 3 20 0 37-2 54-4" stroke="#D4B020" stroke-opacity="0.22" stroke-width="1.4" stroke-linecap="round"/>
  <path d="M35 37c8 5 24 8 48 9 28 1 50-2 65-8-6 7-18 12-32 14-11 2-23 3-38 2-13 0-24-2-35-5-6-2-11-5-17-12h9Z" fill="url(#innerShade)"/>
  <path d="M48 50c17 2 44 2 64 0" stroke="url(#reflection)" stroke-width="4.5" stroke-linecap="round"/>
</svg>