<svg xmlns="http://www.w3.org/2000/svg" viewBox="0 0 26 44" fill="none">
  <defs>
    <linearGradient id="hatFar" x1="0" y1="0" x2="0" y2="1">
      <stop offset="0%" stop-color="#4A3218"/>
      <stop offset="100%" stop-color="#2A1A0E"/>
    </linearGradient>
    <linearGradient id="paddleFar" x1="0" y1="0" x2="0" y2="1">
      <stop offset="0%" stop-color="#4A3416"/>
      <stop offset="100%" stop-color="#30200C"/>
    </linearGradient>
  </defs>
  <path d="M4 8c2-4 5-6 9-7 3 1 6 3 9 7H4Z" fill="url(#hatFar)"/>
  <ellipse cx="13" cy="12" rx="4.7" ry="4" fill="#1C140C"/>
  <path d="M8 16c1-1 3-2 5-2 2 0 4 1 5 2l1 11c-2 2-4 3-6 3s-4-1-6-3l1-11Z" fill="#18120C"/>
  <path d="M22 14c-2 8-2 18-2 24" stroke="url(#paddleFar)" stroke-width="2.5" stroke-linecap="round" transform="rotate(18 22 14)"/>
  <path d="M18.5 34h7v8h-7z" fill="#30200C" transform="rotate(18 18.5 34)"/>
</svg>