<svg xmlns="http://www.w3.org/2000/svg" viewBox="0 0 30 54" fill="none">
  <defs>
    <linearGradient id="leaderHat" x1="0" y1="0" x2="0" y2="1">
      <stop offset="0%" stop-color="#76562C"/>
      <stop offset="100%" stop-color="#422814"/>
    </linearGradient>
    <linearGradient id="leaderStaff" x1="0" y1="0" x2="0" y2="1">
      <stop offset="0%" stop-color="#5A3A1E"/>
      <stop offset="100%" stop-color="#2E1C0C"/>
    </linearGradient>
  </defs>
  <path d="M7 11c2-5 5-8 8-10 4 2 7 5 9 10H7Z" fill="url(#leaderHat)"/>
  <path d="M5 8c2 0 4 1 6 2 2-1 4-2 7-2" stroke="#D8C8A0" stroke-opacity="0.28" stroke-width="1.4" stroke-linecap="round"/>
  <ellipse cx="15" cy="15.5" rx="5.2" ry="4.7" fill="#24180E"/>
  <path d="M10 21c2-2 3-3 5-3 3 0 4 1 6 3l2 16c-3 3-5 4-8 4-2 0-5-1-8-4l3-16Z" fill="#1A120C"/>
  <path d="M5 12c2 9 3 18 3 26" stroke="url(#leaderStaff)" stroke-width="2.6" stroke-linecap="round" transform="rotate(-14 5 12)"/>
  <path d="M1 8c4 1 7 3 9 6" stroke="#244820" stroke-width="1.8" stroke-linecap="round"/>
  <path d="M3 6c3 1 6 2 8 5" stroke="#1E3818" stroke-width="1.4" stroke-linecap="round"/>
  <path d="M9 38c0 4-1 8-2 13" stroke="#120A06" stroke-width="3.2" stroke-linecap="round"/>
  <path d="M20 38c0 4 1 8 2 13" stroke="#120A06" stroke-width="3.2" stroke-linecap="round"/>
  <path d="M8 25c2 2 3 4 4 7" stroke="#1A120C" stroke-width="2.2" stroke-linecap="round"/>
  <path d="M22 24c-1 3-2 5-4 7" stroke="#1A120C" stroke-width="2.2" stroke-linecap="round"/>
</svg>