<svg xmlns="http://www.w3.org/2000/svg" viewBox="0 0 28 48" fill="none">
  <defs>
    <linearGradient id="canoeLeadHat" x1="0" y1="0" x2="0" y2="1">
      <stop offset="0%" stop-color="#6E5228"/>
      <stop offset="100%" stop-color="#3E2612"/>
    </linearGradient>
    <linearGradient id="canoeLeadStaff" x1="0" y1="0" x2="0" y2="1">
      <stop offset="0%" stop-color="#5A381C"/>
      <stop offset="100%" stop-color="#2E1C0C"/>
    </linearGradient>
  </defs>
  <path d="M6 10c2-4 5-7 8-8 4 1 7 4 9 8H6Z" fill="url(#canoeLeadHat)"/>
  <ellipse cx="14" cy="14" rx="5" ry="4.2" fill="#24180E"/>
  <path d="M9 19c2-2 3-3 5-3 3 0 4 1 6 3l2 14c-2 3-4 4-8 4-2 0-4-1-7-4l2-14Z" fill="#1A120C"/>
  <path d="M4 11c2 8 2 18 1 27" stroke="url(#canoeLeadStaff)" stroke-width="2.5" stroke-linecap="round" transform="rotate(-12 4 11)"/>
  <path d="M2 8c3 1 6 3 8 6" stroke="#224418" stroke-width="1.8" stroke-linecap="round"/>
  <path d="M4 6c2 1 5 2 7 5" stroke="#1A3414" stroke-width="1.4" stroke-linecap="round"/>
  <path d="M9 36c0 3-1 6-2 11" stroke="#120A06" stroke-width="3" stroke-linecap="round"/>
  <path d="M19 36c0 3 1 6 2 11" stroke="#120A06" stroke-width="3" stroke-linecap="round"/>
</svg>