<svg xmlns="http://www.w3.org/2000/svg" viewBox="0 0 24 28" fill="none">
  <ellipse cx="12" cy="6" rx="4.6" ry="4" fill="#1E120E"/>
  <path d="M8 10c1-1 2-2 4-2s3 1 4 2l2 8c-2 2-4 3-6 3s-4-1-6-3l2-8Z" fill="#140C0A"/>
  <path d="M6 19c2 1 4 2 6 2s4-1 6-2" stroke="#3A241C" stroke-opacity="0.3" stroke-width="1" stroke-linecap="round"/>
  <path d="M6 19c2 0 4 1 6 2 2-1 4-2 6-2" stroke="#100806" stroke-width="2.4" stroke-linecap="round"/>
  <path d="M4 22c3 1 6 2 8 2s5-1 8-2" stroke="#140C08" stroke-width="2.2" stroke-linecap="round" opacity="0.65"/>
</svg>