<svg xmlns="http://www.w3.org/2000/svg" viewBox="0 0 128 48" fill="none">
  <defs>
    <linearGradient id="rackWood" x1="0" y1="0" x2="0" y2="1">
      <stop offset="0%" stop-color="#3A1810"/>
      <stop offset="100%" stop-color="#180808"/>
    </linearGradient>
  </defs>
  <rect x="8" y="34" width="112" height="8" rx="3" fill="#140606"/>
  <g fill="url(#rackWood)">
    <path d="M10 34 18 6l8 28H10Z"/>
    <path d="M24 34 32 10l8 24H24Z"/>
    <path d="M38 34 46 4l8 30H38Z"/>
    <path d="M52 34 60 12l8 22H52Z"/>
    <path d="M66 34 74 7l8 27H66Z"/>
    <path d="M80 34 88 11l8 23H80Z"/>
    <path d="M94 34 102 5l8 29H94Z"/>
  </g>
  <rect x="16" y="24" width="92" height="3" rx="1.5" fill="#2A1010"/>
  <rect x="20" y="18" width="2" height="16" rx="1" fill="#4A2018"/>
  <rect x="50" y="16" width="2" height="18" rx="1" fill="#4A2018"/>
  <rect x="78" y="17" width="2" height="17" rx="1" fill="#4A2018"/>
  <rect x="102" y="15" width="2" height="19" rx="1" fill="#4A2018"/>
  <path d="M18 27h88" stroke="#D03020" stroke-opacity="0.12" stroke-width="1.5" stroke-linecap="round"/>
</svg>