<svg xmlns="http://www.w3.org/2000/svg" viewBox="0 0 34 132" fill="none">
  <defs>
    <linearGradient id="poleWoodMem" x1="0" y1="0" x2="0" y2="1">
      <stop offset="0%" stop-color="#2A1010"/>
      <stop offset="100%" stop-color="#140808"/>
    </linearGradient>
  </defs>
  <rect x="11" y="12" width="12" height="112" rx="2" fill="url(#poleWoodMem)"/>
  <path d="M6 0h22v20H6z" fill="#2A1010" stroke="#1A0808" stroke-opacity="0.5"/>
  <ellipse cx="13" cy="7" rx="2.4" ry="1.7" fill="#C8B8B0" fill-opacity="0.14"/>
  <ellipse cx="21" cy="7" rx="2.4" ry="1.7" fill="#C8B8B0" fill-opacity="0.14"/>
  <path d="M14 12h6v6h-6z" fill="#1A0808"/>
  <path d="M2 6h7v8H2zM25 6h7v8h-7z" fill="#2A1010" fill-opacity="0.75"/>
  <rect x="8" y="42" width="18" height="15" rx="2" fill="#1A0808"/>
  <ellipse cx="13" cy="49" rx="2" ry="1.3" fill="#C8B8B0" fill-opacity="0.1"/>
  <ellipse cx="21" cy="49" rx="2" ry="1.3" fill="#C8B8B0" fill-opacity="0.1"/>
  <rect x="7" y="74" width="20" height="16" rx="2" fill="#221010"/>
  <ellipse cx="13" cy="81" rx="2" ry="1.3" fill="#C8B8B0" fill-opacity="0.08"/>
  <ellipse cx="21" cy="81" rx="2" ry="1.3" fill="#C8B8B0" fill-opacity="0.08"/>
  <rect x="9" y="122" width="16" height="10" rx="2" fill="#140808"/>
</svg>