<svg xmlns="http://www.w3.org/2000/svg" viewBox="0 0 34 136" fill="none">
  <defs>
    <linearGradient id="hostilePoleWood" x1="0" y1="0" x2="0" y2="1">
      <stop offset="0%" stop-color="#341818"/>
      <stop offset="100%" stop-color="#180808"/>
    </linearGradient>
  </defs>
  <rect x="11" y="16" width="12" height="112" rx="2" fill="url(#hostilePoleWood)"/>
  <path d="M6 0h22v24H6z" fill="#2A1010" stroke="#180808" stroke-opacity="0.55"/>
  <ellipse cx="13" cy="8" rx="2.5" ry="1.8" fill="#C8B0B0" fill-opacity="0.12"/>
  <ellipse cx="21" cy="8" rx="2.5" ry="1.8" fill="#C8B0B0" fill-opacity="0.12"/>
  <path d="M14 14h6v6h-6z" fill="#140606"/>
  <path d="M2 10h7v10H2zM25 10h7v10h-7z" fill="#2A1010" fill-opacity="0.82"/>
  <rect x="7" y="44" width="20" height="16" rx="2" fill="#221010"/>
  <ellipse cx="13" cy="52" rx="2.1" ry="1.4" fill="#C8B0B0" fill-opacity="0.1"/>
  <ellipse cx="21" cy="52" rx="2.1" ry="1.4" fill="#C8B0B0" fill-opacity="0.1"/>
  <rect x="8" y="78" width="18" height="15" rx="2" fill="#1C0C0C"/>
  <ellipse cx="13" cy="85" rx="2" ry="1.3" fill="#C8B0B0" fill-opacity="0.08"/>
  <ellipse cx="21" cy="85" rx="2" ry="1.3" fill="#C8B0B0" fill-opacity="0.08"/>
  <rect x="9" y="126" width="16" height="10" rx="2" fill="#140606"/>
</svg>