<svg xmlns="http://www.w3.org/2000/svg" viewBox="0 0 34 132" fill="none">
  <defs>
    <linearGradient id="poleWood" x1="0" y1="0" x2="0" y2="1">
      <stop offset="0%" stop-color="#3A2810"/>
      <stop offset="100%" stop-color="#1A1004"/>
    </linearGradient>
  </defs>
  <rect x="11" y="12" width="12" height="112" rx="2" fill="url(#poleWood)"/>
  <path d="M6 0h22v20H6z" fill="#3A2810" stroke="#2A1A08" stroke-opacity="0.3"/>
  <ellipse cx="13" cy="7" rx="2.4" ry="1.7" fill="#E0D8C8" fill-opacity="0.2"/>
  <ellipse cx="21" cy="7" rx="2.4" ry="1.7" fill="#E0D8C8" fill-opacity="0.2"/>
  <path d="M14 12h6v6h-6z" fill="#24160A"/>
  <path d="M2 6h7v8H2zM25 6h7v8h-7z" fill="#3A2810" fill-opacity="0.75"/>
  <rect x="8" y="42" width="18" height="15" rx="2" fill="#2A1A08"/>
  <ellipse cx="13" cy="49" rx="2" ry="1.3" fill="#E0D8C8" fill-opacity="0.16"/>
  <ellipse cx="21" cy="49" rx="2" ry="1.3" fill="#E0D8C8" fill-opacity="0.16"/>
  <rect x="7" y="74" width="20" height="16" rx="2" fill="#332210"/>
  <ellipse cx="13" cy="81" rx="2" ry="1.3" fill="#E0D8C8" fill-opacity="0.12"/>
  <ellipse cx="21" cy="81" rx="2" ry="1.3" fill="#E0D8C8" fill-opacity="0.12"/>
  <rect x="9" y="122" width="16" height="10" rx="2" fill="#1A1004"/>
</svg>